<svg width="41" height="40" viewBox="0 0 41 40" fill="none" xmlns="http://www.w3.org/2000/svg">
  <path d="M32.3356 13.3333L25.6007 20H30.6519C30.6519 25.5167 26.1226 30 20.5495 30C18.8489 30 17.2325 29.5833 15.835 28.8333L13.3768 31.2667C15.4478 32.5667 17.906 33.3333 20.5495 33.3333C27.9916 33.3333 34.0193 27.3667 34.0193 20H39.0705L32.3356 13.3333ZM10.4471 20C10.4471 14.4833 14.9763 10 20.5495 10C22.2501 10 23.8664 10.4167 25.2639 11.1667L27.7222 8.73333C25.6512 7.43333 23.1929 6.66666 20.5495 6.66666C13.1074 6.66666 7.07964 12.6333 7.07964 20H2.02844L8.76337 26.6667L15.4983 20H10.4471Z" fill="#DCDCDC"/>
</svg>
